<svg xmlns="http://www.w3.org/2000/svg" width="24" height="24" fill="currentColor" viewBox="0 0 24 24" aria-hidden="true" class="footer__social-icon">
  <path fill-rule="evenodd" d="M12 .5a12.04 12.04 0 0 0-7.773 2.847 11.92 11.92 0 0 0-4.068 7.175 11.88 11.88 0 0 0 1.577 8.086 12 12 0 0 0 6.469 5.145c.596.11.82-.259.82-.573s-.011-1.225-.015-2.22c-3.339.72-4.044-1.41-4.044-1.41-.545-1.383-1.331-1.746-1.331-1.746-1.09-.739.081-.725.081-.725 1.206.085 1.84 1.23 1.84 1.23 1.07 1.824 2.808 1.297 3.491.989.108-.773.42-1.298.763-1.597-2.666-.3-5.468-1.324-5.468-5.896a4.6 4.6 0 0 1 1.236-3.202c-.123-.3-.535-1.514.117-3.162 0 0 1.008-.32 3.3 1.223a11.45 11.45 0 0 1 6.01 0c2.29-1.543 3.296-1.223 3.296-1.223.654 1.644.243 2.857.12 3.162a4.6 4.6 0 0 1 1.237 3.206c0 4.582-2.807 5.592-5.478 5.886.43.372.813 1.097.813 2.211 0 1.597-.014 2.88-.014 3.274 0 .318.216.69.824.573a12 12 0 0 0 6.47-5.146 11.88 11.88 0 0 0 1.576-8.087 11.92 11.92 0 0 0-4.07-7.175A12.04 12.04 0 0 0 12.004.5z" clip-rule="evenodd" />
  <path d="M4.545 17.632c-.026.06-.122.077-.2.036-.077-.042-.134-.119-.106-.18.027-.061.12-.077.198-.036.078.042.137.12.108.18M5.031 18.171a.2.2 0 0 1-.246-.055c-.078-.083-.094-.197-.034-.249s.167-.027.244.055c.078.083.096.198.036.25M5.504 18.857c-.073.051-.198 0-.268-.103a.197.197 0 0 1 0-.284c.074-.05.199 0 .268.1.07.101.072.236 0 .287M6.146 19.52c-.065.074-.199.054-.308-.045-.11-.098-.135-.233-.07-.304.066-.071.2-.051.313.046.113.096.135.233.065.304M7.046 19.908c-.03.093-.165.134-.3.095s-.224-.15-.199-.245c.026-.095.163-.138.3-.095.138.044.225.148.2.245M8.028 19.975c0 .097-.111.18-.255.182-.143.002-.26-.077-.26-.174s.111-.18.255-.182c.143-.002.26.076.26.174M8.942 19.823c.018.097-.082.198-.225.221-.143.024-.268-.033-.286-.128s.086-.198.225-.223c.139-.026.268.033.286.13" />
</svg>
